<svg version="1.1" id="Layer_1" xmlns="http://www.w3.org/2000/svg" xmlns:xlink="http://www.w3.org/1999/xlink" x="0px" y="0px"
	 width="100%" viewBox="0 0 992 992" enable-background="new 0 0 992 992" xml:space="preserve">
<path fill="#000000" opacity="1.000000" stroke="none" 
	d="
M304.067932,786.247253 
	C299.796417,785.143738 295.917938,784.195007 292.108856,783.021118 
	C290.481812,782.519775 289.004181,781.360535 289.098053,779.451233 
	C289.192780,777.524902 290.835419,776.586548 292.475372,776.206909 
	C296.363831,775.306885 300.301941,774.683594 304.329926,774.755127 
	C335.489807,775.308655 366.657501,775.302795 397.805481,774.537476 
	C421.089874,773.965393 444.356903,772.652283 467.605103,770.922119 
	C492.487122,769.070312 517.312195,766.727112 542.039856,763.526794 
	C571.377441,759.729797 600.517517,754.634338 629.415833,748.260498 
	C651.849609,743.312500 674.067261,737.539368 695.598877,729.441772 
	C701.820068,727.102051 707.816650,724.142883 713.839966,721.305725 
	C719.219177,718.772156 722.504333,714.650757 724.443481,708.817017 
	C730.608276,690.270325 734.139526,671.220459 736.764709,651.917480 
	C741.840759,614.593445 743.067444,577.046021 744.116333,539.456909 
	C745.083557,504.798401 744.631836,470.144867 744.489380,435.492279 
	C744.409363,416.018188 743.517822,396.537262 742.558899,377.080750 
	C741.970459,365.141785 740.898926,353.201874 739.438416,341.337006 
	C737.651733,326.822052 734.395142,324.224091 719.424316,322.382843 
	C705.757324,320.701965 692.179688,322.203796 678.555359,322.778870 
	C665.951599,323.310822 653.361084,325.718597 640.709229,323.413177 
	C627.312195,320.971954 617.992798,311.524384 615.701111,298.208160 
	C614.936218,293.764008 614.553406,289.317780 614.640259,284.803711 
	C615.092102,261.312775 614.350159,237.835037 613.565735,214.364227 
	C613.344177,207.737213 612.290283,201.134949 611.541443,194.530045 
	C611.209473,191.602325 609.691345,189.970627 606.605652,189.131638 
	C593.059998,185.448608 579.221130,183.605011 565.302734,182.451355 
	C523.423218,178.980164 481.438660,178.813614 439.469574,179.501343 
	C405.693481,180.054825 371.891479,180.989578 338.422729,186.340591 
	C325.430054,188.417877 312.636993,191.217926 300.342560,196.185684 
	C290.182159,200.291168 283.878418,207.483871 280.209656,217.634842 
	C276.149323,228.869217 274.341766,240.540787 273.488464,252.288116 
	C271.495331,279.726044 271.927948,307.242310 272.555908,334.710693 
	C273.305267,367.492340 275.059998,400.249817 276.192810,433.024200 
	C277.781738,478.995026 277.852020,524.992310 277.124420,570.969788 
	C276.642761,601.405334 275.274872,631.843567 272.498260,662.193604 
	C270.877502,679.909607 269.971466,697.693176 268.219177,715.394348 
	C266.715240,730.586914 265.396942,745.848633 261.361115,760.674866 
	C261.055878,761.796265 260.739899,762.918518 260.350220,764.012329 
	C259.483429,766.445312 258.473846,768.745728 255.242157,768.534607 
	C252.269897,768.340271 251.348251,766.061523 250.898956,763.779968 
	C250.001328,759.221741 249.057877,754.619385 248.796082,749.997681 
	C246.949219,717.392334 246.309448,684.753479 246.969925,652.103760 
	C248.153015,593.619324 247.993073,535.127991 247.505417,476.644592 
	C247.209686,441.177216 245.948334,405.706390 244.484100,370.263428 
	C243.046448,335.464172 242.036987,300.666809 242.980377,265.855652 
	C243.502411,246.592957 244.893723,227.390045 250.490982,208.681076 
	C256.598267,188.267273 269.630432,174.825439 289.396820,167.554657 
	C308.283630,160.607422 327.966492,157.541702 347.882385,155.655334 
	C393.910583,151.295670 440.065033,152.352081 486.174866,153.026398 
	C512.608643,153.412964 539.028076,155.197601 565.399841,157.484283 
	C582.473816,158.964798 599.531921,160.634796 616.276306,164.142990 
	C637.592712,168.609116 655.975708,179.333954 672.495911,193.273758 
	C704.825562,220.553635 732.959045,251.478058 754.114502,288.349915 
	C762.666992,303.255981 767.867493,319.190582 769.406799,336.451080 
	C774.267578,390.956787 773.074707,445.590729 773.456970,500.197754 
	C773.641296,526.515381 773.532349,552.831848 772.217712,579.107605 
	C770.207764,619.280640 767.899841,659.453613 758.322510,698.764771 
	C753.932251,716.784973 747.328369,733.404419 730.759216,744.046265 
	C719.733887,751.127502 707.763306,756.150085 695.414917,760.221069 
	C660.238525,771.818176 624.090759,779.130432 587.483521,784.474792 
	C560.807495,788.369324 534.023865,791.257080 507.150879,793.054626 
	C465.738129,795.824646 424.269989,796.345581 382.783630,794.505066 
	C358.509918,793.428162 334.320862,791.607849 310.364929,787.364075 
	C308.405579,787.017029 306.447601,786.662109 304.067932,786.247253 
M644.206177,238.702805 
	C644.424194,253.510025 644.817932,268.317596 644.788757,283.124329 
	C644.773376,290.919525 646.049011,292.749817 653.711914,292.677612 
	C671.041016,292.514404 688.273376,293.614166 705.331726,296.718292 
	C711.842773,297.903076 718.262329,299.590240 726.052246,301.348328 
	C700.440735,265.088531 673.368164,232.007767 640.260681,202.565140 
	C641.643921,215.126129 642.889832,226.439987 644.206177,238.702805 
z"/>
<path fill="#000000" opacity="1.000000" stroke="none" 
	d="
M602.481628,523.448853 
	C613.269714,516.447937 623.827454,509.795044 635.734802,505.639160 
	C640.297668,504.046631 644.585938,504.390045 648.609558,507.064423 
	C652.886902,509.907410 653.664856,513.649902 650.555969,517.680664 
	C648.846558,519.896912 646.829041,522.006592 644.576599,523.652771 
	C616.420044,544.230225 589.734070,566.585083 565.154419,591.293884 
	C534.462891,622.146667 504.702484,653.848694 484.579163,693.127075 
	C481.661652,698.821716 477.782532,703.836731 472.254822,707.282349 
	C464.745361,711.963257 456.608948,710.461609 450.902100,703.556824 
	C447.548676,699.499451 445.522888,694.782166 443.833771,689.879822 
	C433.840759,660.876770 418.807922,634.800842 398.496552,611.787720 
	C396.174377,609.156677 393.725311,606.759460 390.569550,605.030579 
	C386.621307,602.867493 386.140778,599.771545 388.736420,595.848877 
	C393.007721,589.393738 403.429779,585.492249 411.796509,587.042297 
	C421.300323,588.802917 428.431915,594.363403 434.788055,601.162231 
	C446.955200,614.176880 456.171600,629.176514 464.094452,645.034912 
	C464.901428,646.650208 465.781738,648.228821 467.002075,650.529846 
	C502.925934,597.930298 550.082092,558.136169 602.481628,523.448853 
z"/>
<path fill="#000000" opacity="1.000000" stroke="none" 
	d="
M367.952606,442.351990 
	C360.351318,441.851318 353.219666,441.275543 346.325531,439.233826 
	C343.339081,438.349304 339.439514,437.740051 339.203552,433.964203 
	C338.951508,429.931000 343.014404,429.444824 345.891205,428.443970 
	C354.121002,425.580750 362.755066,424.606995 371.338074,423.739410 
	C416.159149,419.208710 461.139343,419.213440 506.096771,419.978668 
	C542.555664,420.599213 579.025879,421.615295 615.427917,423.890961 
	C628.687317,424.719879 642.020142,425.222839 655.155273,427.580933 
	C657.199951,427.948029 660.255127,427.629028 660.115784,430.507324 
	C659.984863,433.211395 656.877075,432.955566 654.882690,433.209717 
	C636.541687,435.546783 618.100098,436.591461 599.636780,437.363342 
	C564.855774,438.817291 530.075989,440.103790 495.260010,440.639374 
	C481.113617,440.856995 466.937775,440.796051 452.805176,441.474457 
	C429.506226,442.592804 406.183319,442.013916 382.884918,442.907745 
	C378.077423,443.092194 373.242493,442.559906 367.952606,442.351990 
z"/>
<path fill="#000000" opacity="1.000000" stroke="none" 
	d="
M479.001343,374.371948 
	C444.194092,375.010620 409.885895,375.491547 375.570587,375.399261 
	C367.377441,375.377197 359.290192,374.469788 351.262177,373.076447 
	C348.023590,372.514374 344.883331,371.215118 341.800415,369.993713 
	C340.084076,369.313690 338.686096,368.048401 338.747437,365.850189 
	C338.808411,363.665070 340.262115,362.635681 341.985504,361.833923 
	C348.564789,358.773163 355.644196,357.514709 362.737274,356.766846 
	C401.708679,352.657959 440.812775,352.100281 479.942535,353.097778 
	C504.730286,353.729736 529.527527,354.448212 554.280884,355.835480 
	C578.006226,357.165161 601.788574,358.156097 625.329529,361.759247 
	C627.722412,362.125519 631.705505,361.604187 631.713745,364.963287 
	C631.721375,368.072083 627.781128,367.445496 625.569946,367.825134 
	C613.256592,369.939392 600.760132,370.565430 588.323120,371.128052 
	C552.069824,372.767883 515.802612,374.218384 479.001343,374.371948 
z"/>
<path fill="#000000" opacity="1.000000" stroke="none" 
	d="
M423.001465,506.289185 
	C405.844299,506.628387 389.185699,507.257690 372.529816,507.193848 
	C362.587555,507.155762 352.537689,506.899750 342.963531,503.442047 
	C340.425690,502.525482 337.596924,501.774963 337.628235,498.382385 
	C337.659149,495.036255 340.520599,494.242371 342.994781,493.269348 
	C353.978394,488.949738 365.631805,487.806976 377.188110,486.788544 
	C414.055573,483.539642 451.037476,483.146790 488.010193,483.803345 
	C518.799988,484.350067 549.603333,485.133331 580.245300,488.677277 
	C582.718079,488.963257 585.180542,489.406860 587.614563,489.931427 
	C588.930725,490.215088 590.248047,490.847382 590.270874,492.485443 
	C590.293335,494.089325 589.094299,494.890808 587.746765,495.166107 
	C582.374084,496.263580 577.015137,497.543365 571.584351,498.220978 
	C549.935547,500.922211 528.150879,502.053680 506.381470,503.107483 
	C478.768097,504.444183 451.129150,505.251801 423.001465,506.289185 
z"/>
</svg>